<svg width="109" height="100" viewBox="0 0 109 100" fill="none" xmlns="http://www.w3.org/2000/svg">
<g clip-path="url(#clip0_310_2)">
<path d="M55.1694 59.6097L55.0192 59.2044L54.6537 58.1186C53.5423 54.3107 53.4722 50.7381 56.3308 48.026C59.7601 44.7736 64.7715 45.1939 67.62 49.0268C68.3259 49.9825 68.7014 50.0275 69.6927 49.397C71.3347 48.3613 76.7015 47.6107 79.3949 52.1291C79.979 53.1846 80.3344 54.3511 80.4379 55.5528C80.5414 56.7546 80.3907 57.9646 79.9956 59.1043C78.3535 63.2024 75.0143 65.8894 71.4398 68.2112C69.5471 69.3876 67.5711 70.4245 65.5274 71.3135C64.436 71.8139 63.63 71.8439 62.6688 70.8131C59.7518 67.6605 57.3144 64.0964 55.4347 60.2352L55.1694 59.6097Z" fill="#F6A2C6"/>
<path d="M77.4425 71.4736L77.3524 71.2785L77.1221 70.7781C76.4012 68.9417 76.2059 67.1804 77.4975 65.7143C77.8395 65.2993 78.2691 64.965 78.7555 64.7355C79.2419 64.5061 79.7732 64.3871 80.3111 64.3871C80.849 64.3871 81.3802 64.5061 81.8667 64.7355C82.3531 64.965 82.7827 65.2993 83.1246 65.7143C83.5201 66.1546 83.7054 66.1546 84.1659 65.8044C84.9319 65.2189 87.5502 64.6035 89.0871 66.72C89.4238 67.2156 89.6522 67.7766 89.7574 68.3663C89.8627 68.956 89.8424 69.5613 89.6979 70.1426C89.0671 72.2442 87.5352 73.7203 85.8731 75.0263C84.9907 75.6941 84.0603 76.2961 83.0896 76.8276C82.8802 76.9962 82.6138 77.0773 82.346 77.0539C82.0782 77.0306 81.8298 76.9047 81.6528 76.7025C80.0698 75.275 78.7051 73.6228 77.6027 71.7989L77.4425 71.4736Z" fill="#F5A2C6"/>
<path d="M68.1307 73.9105L68.2158 73.7003L68.4561 73.1499C69.3622 71.2735 70.5938 69.8574 72.6564 69.8074C73.2237 69.7742 73.7913 69.8669 74.3185 70.0789C74.8456 70.2908 75.3193 70.6169 75.7055 71.0335C76.0918 71.4501 76.3809 71.947 76.5522 72.4886C76.7236 73.0301 76.7728 73.6028 76.6965 74.1656C76.6364 74.7911 76.7716 74.9362 77.3723 75.0413C78.3736 75.2114 80.7315 76.8026 80.1909 79.5147C80.0476 80.1309 79.7761 80.7101 79.394 81.2144C79.0119 81.7188 78.5277 82.137 77.9731 82.4418C75.8955 83.4426 73.6476 83.3325 71.4398 82.9822C70.2888 82.7747 69.1544 82.4837 68.0456 82.1116C67.7657 82.0694 67.5129 81.9211 67.3395 81.6974C67.1661 81.4738 67.0855 81.1921 67.1144 80.9107C67.0845 78.6584 67.3881 76.4141 68.0155 74.2507L68.1307 73.9105Z" fill="#E75D9A"/>
<path d="M61.918 86.7751V86.61L61.8829 86.1696C61.8279 84.6385 62.1382 83.2975 63.4649 82.5519C63.8219 82.3349 64.2225 82.1996 64.6381 82.1558C65.0536 82.112 65.4737 82.1607 65.8681 82.2985C66.2625 82.4363 66.6215 82.6597 66.9193 82.9527C67.217 83.2457 67.4461 83.601 67.5901 83.993C67.7653 84.4183 67.9055 84.4684 68.331 84.3283C69.034 84.1693 69.771 84.2802 70.3959 84.6389C71.0209 84.9975 71.4883 85.5778 71.7053 86.2647C71.825 86.7145 71.8486 87.1845 71.7744 87.6441C71.7002 88.1036 71.53 88.5423 71.2747 88.9317C70.2735 90.3127 68.7716 91.0033 67.2146 91.5337C66.3965 91.7975 65.5598 91.9999 64.7115 92.1391C64.5173 92.2026 64.3062 92.1904 64.1206 92.105C63.935 92.0197 63.7884 91.8675 63.7102 91.6788C62.9161 90.2226 62.3393 88.6582 61.9981 87.0353L61.918 86.7751Z" fill="#EB3575"/>
<path d="M48.481 94.686L48.3659 94.4909L48.0655 93.9655C47.1043 92.1091 46.7038 90.2727 47.9053 88.5864C48.2197 88.111 48.6355 87.7111 49.1228 87.4152C49.6101 87.1193 50.1569 86.9349 50.7239 86.8751C51.2909 86.8153 51.8642 86.8817 52.4025 87.0694C52.9409 87.2571 53.431 87.5616 53.8378 87.961C54.3033 88.3813 54.4986 88.3663 54.9441 87.961C55.6901 87.2604 58.3835 86.3247 60.2358 88.3863C60.6429 88.873 60.9426 89.4402 61.1152 90.0507C61.2877 90.6612 61.3292 91.3013 61.2371 91.9289C60.8115 94.2107 59.3547 95.9319 57.7327 97.4981C56.8758 98.3005 55.9605 99.0381 54.9942 99.7048C54.7929 99.8971 54.5265 100.006 54.2482 100.011C53.9698 100.016 53.6999 99.9153 53.4923 99.7298C51.6637 98.3981 50.041 96.8049 48.6763 95.0012L48.481 94.686Z" fill="#F32E73"/>
<path d="M49.9279 75.3365C49.9279 75.2515 49.9279 75.1614 49.9279 75.0713V74.3608C50.058 71.8939 50.7439 69.7874 52.9767 68.7816C53.5808 68.4861 54.2428 68.3276 54.9153 68.3175C55.5878 68.3074 56.2543 68.446 56.867 68.7233C57.4797 69.0006 58.0236 69.4097 58.4597 69.9215C58.8958 70.4333 59.2134 71.0351 59.3898 71.6838C59.61 72.3893 59.8203 72.4894 60.5262 72.3243C61.7077 72.0541 65.0319 72.7096 65.6627 75.912C65.7887 76.6504 65.758 77.4071 65.5726 78.1329C65.3872 78.8587 65.0511 79.5375 64.5863 80.1251C62.784 82.1967 60.2759 83.0873 57.7076 83.7178C56.3544 84.0215 54.9806 84.2255 53.5975 84.3283C53.2724 84.4108 52.928 84.3648 52.6361 84.1998C52.3442 84.0348 52.1272 83.7636 52.0305 83.4426C50.9633 80.9982 50.2616 78.4103 49.9479 75.7618L49.9279 75.3365Z" fill="#EC89B4"/>
<path d="M2.92372 17.7783L3.07892 17.5131L3.50445 16.7676C5.11648 14.3007 7.08396 12.5094 10.0126 12.8196C10.814 12.8726 11.5936 13.1022 12.2957 13.4919C12.9978 13.8817 13.6048 14.4219 14.0733 15.0738C14.5418 15.7257 14.8601 16.4732 15.0054 17.2626C15.1508 18.052 15.1195 18.8638 14.9138 19.6397C14.7186 20.5004 14.8788 20.7305 15.7098 20.9807C17.0865 21.401 20.1104 24.048 18.8788 27.7458C18.5696 28.5851 18.0871 29.3499 17.4626 29.9905C16.8381 30.631 16.0857 31.133 15.2542 31.4636C12.1553 32.5344 9.03141 31.964 5.99759 31.0783C4.41788 30.5895 2.8767 29.9841 1.38679 29.2669C0.555742 28.9017 0.150232 28.4613 0.270383 27.4156C0.626241 24.2527 1.4443 21.1592 2.69844 18.2337L2.92372 17.7783Z" fill="#EC89B4"/>
<path d="M0 34.686C0 34.636 0 34.5859 0 34.5359L0.0350441 34.1406C0.215271 32.7846 0.680857 31.6888 1.92743 31.3735C3.42932 30.9983 4.89616 32.024 5.2416 33.7003C5.3267 34.1156 5.43684 34.2007 5.82733 34.2007C6.48703 34.2682 7.10382 34.5591 7.57547 35.0251C8.04711 35.491 8.3453 36.104 8.4206 36.7626C8.46497 37.1672 8.41931 37.5766 8.2869 37.9616C8.15448 38.3465 7.93858 38.6974 7.65463 38.9892C6.5933 39.94 5.20155 40.1601 3.79478 40.2252C3.04699 40.244 2.29886 40.2055 1.55696 40.1101C1.36625 40.1118 1.18111 40.0459 1.03445 39.924C0.887792 39.8022 0.789111 39.6323 0.755951 39.4446C0.299982 37.9797 0.0456631 36.4596 0 34.9262L0 34.686Z" fill="#F9C2DC"/>
<path d="M12.2054 39.8699L12.1003 39.7548L11.8149 39.4396C10.8887 38.2987 10.3481 37.0978 10.9338 35.7618C11.0803 35.3868 11.3088 35.0491 11.6024 34.7734C11.896 34.4978 12.2475 34.291 12.6312 34.1683C13.0149 34.0456 13.4211 34.01 13.8203 34.064C14.2195 34.1181 14.6017 34.2605 14.9388 34.4809C15.3193 34.706 15.4395 34.666 15.6998 34.3107C16.1448 33.7841 16.7713 33.4436 17.4555 33.3565C18.1396 33.2694 18.8316 33.4421 19.3944 33.8404C19.7456 34.1153 20.0349 34.4609 20.2436 34.8549C20.4524 35.2489 20.5758 35.6823 20.606 36.1271C20.641 37.7583 19.8901 39.1294 19.009 40.4604C18.5326 41.1322 18.009 41.7693 17.442 42.3668C17.3314 42.5329 17.1613 42.6504 16.9667 42.695C16.7721 42.7397 16.5677 42.7082 16.3957 42.607C14.9435 41.9535 13.5944 41.0922 12.3906 40.05L12.2054 39.8699Z" fill="#FBC2DB"/>
<path d="M40.0504 39.8599L40.3808 40.1501L41.2319 40.9507C44.0805 43.8379 45.8777 47.0152 44.6261 50.8331C43.1242 55.4215 38.4133 57.4731 33.9827 55.3965C32.8814 54.8962 32.5259 55.0263 31.9402 56.067C30.969 57.7983 26.5083 61.0708 21.8925 58.3137C20.8558 57.6486 19.9706 56.7729 19.2944 55.7436C18.6182 54.7144 18.1662 53.5545 17.9676 52.3392C17.467 47.8359 19.1541 43.8329 21.2417 40.005C22.3717 38.0281 23.645 36.1367 25.0515 34.3457C25.7874 33.345 26.4983 32.9497 27.865 33.4251C32.0189 34.8445 35.9408 36.8677 39.5047 39.4296L40.0504 39.8599Z" fill="#E95C98"/>
<path d="M32.8964 13.8904L33.2118 13.9755L34.0378 14.2307C36.8714 15.2314 39.0992 16.7676 39.5047 19.7348C39.6456 20.5438 39.6052 21.3739 39.3865 22.1655C39.1678 22.957 38.7763 23.6902 38.24 24.3123C37.7038 24.9345 37.0362 25.43 36.2853 25.7633C35.5344 26.0965 34.719 26.2592 33.8976 26.2397C32.9965 26.2397 32.8063 26.4698 32.7512 27.3505C32.6661 28.8166 30.7487 32.4443 26.7887 32.1041C25.8814 31.9969 25.0069 31.7001 24.222 31.2328C23.437 30.7656 22.7593 30.1384 22.233 29.392C20.4357 26.5749 20.2605 23.3375 20.4107 20.1151C20.5261 18.4325 20.762 16.7603 21.1166 15.1113C21.2868 14.2207 21.6172 13.7153 22.6935 13.5852C25.9196 13.1868 29.1867 13.2627 32.3907 13.8104L32.8964 13.8904Z" fill="#E04A7F"/>
<path d="M14.3781 5.50412L14.5133 5.40904L14.8688 5.16886C16.1504 4.37327 17.452 3.98297 18.7286 4.75355C19.0938 4.95059 19.4103 5.22676 19.655 5.56185C19.8996 5.89694 20.0662 6.28247 20.1425 6.69021C20.2188 7.09796 20.2029 7.5176 20.096 7.91841C19.9891 8.31923 19.7939 8.69108 19.5246 9.00674C19.2493 9.36201 19.2743 9.50712 19.5997 9.80234C20.0775 10.3244 20.3424 11.0063 20.3424 11.7138C20.3424 12.4213 20.0775 13.1031 19.5997 13.6252C19.2717 13.9476 18.8789 14.1968 18.4475 14.3564C18.016 14.5159 17.5556 14.5822 17.0966 14.5509C15.4295 14.3708 14.0928 13.4201 12.8963 12.3543C12.2706 11.7812 11.6867 11.1642 11.1491 10.5079C10.9947 10.3733 10.8977 10.1847 10.8782 9.98088C10.8586 9.77706 10.9179 9.57349 11.0439 9.41205C11.8996 8.02817 12.9538 6.77725 14.1729 5.69926L14.3781 5.50412Z" fill="#EB3575"/>
<path d="M22.5885 4.82861L22.6536 4.6785L22.8338 4.2832C23.5096 2.9422 24.4158 1.93144 25.9077 1.91643C26.318 1.9009 26.7267 1.97597 27.1047 2.13632C27.4827 2.29666 27.8207 2.53832 28.0946 2.8441C28.3685 3.14988 28.5716 3.51226 28.6894 3.90543C28.8073 4.2986 28.8369 4.7129 28.7763 5.11883C28.7262 5.56917 28.8213 5.67425 29.2769 5.75431C29.9589 5.9502 30.5428 6.39431 30.9134 6.9991C31.2841 7.60389 31.4147 8.32551 31.2794 9.02176C31.1683 9.4662 30.9645 9.8822 30.6816 10.2426C30.3986 10.603 30.0428 10.8997 29.6374 11.1133C28.1355 11.8239 26.5034 11.7038 24.9114 11.4236C24.0683 11.2636 23.2383 11.0412 22.4283 10.7581C22.2269 10.7224 22.0466 10.6117 21.9239 10.4481C21.8012 10.2846 21.7453 10.0806 21.7675 9.8774C21.7739 8.24902 22.0201 6.63046 22.4984 5.0738L22.5885 4.82861Z" fill="#FAC3DB"/>
<path d="M31.3794 4.67352L31.3044 4.57845L31.1091 4.31825C30.4733 3.38255 30.1379 2.41683 30.6736 1.43109C30.8111 1.15443 31.0083 0.91174 31.2511 0.72054C31.4938 0.52934 31.776 0.3944 32.0773 0.325462C32.3786 0.256524 32.6914 0.255308 32.9932 0.321903C33.295 0.388497 33.5783 0.52124 33.8225 0.710547C34.0979 0.905694 34.203 0.880675 34.4183 0.625484C34.7947 0.24898 35.2987 0.0272513 35.8307 0.00409098C36.3628 -0.0190693 36.8841 0.158023 37.2919 0.50039C37.5406 0.737814 37.7364 1.02495 37.8667 1.34308C37.9969 1.66121 38.0587 2.00321 38.0478 2.34677C37.9677 3.60272 37.2969 4.62849 36.5459 5.5742C36.1369 6.06063 35.6917 6.51559 35.2143 6.93522C35.1201 7.05687 34.9821 7.13697 34.8297 7.15847C34.6772 7.17996 34.5225 7.14115 34.3982 7.0503C33.3277 6.45461 32.351 5.70431 31.4996 4.82363L31.3794 4.67352Z" fill="#F9A0C5"/>
<path d="M45.3771 13.6302L45.2269 13.7503L44.8164 14.0605C43.3495 15.0613 41.8126 15.6217 40.2757 14.7961C39.8376 14.5828 39.4523 14.2752 39.1473 13.8954C38.8423 13.5156 38.6253 13.0729 38.5119 12.5993C38.3985 12.1257 38.3914 11.6328 38.4912 11.1561C38.591 10.6794 38.7952 10.2308 39.0892 9.84237C39.3946 9.40204 39.3545 9.23691 38.949 8.90667C38.3562 8.31962 38.004 7.53253 37.9614 6.69955C37.9188 5.86656 38.1889 5.04768 38.7187 4.40329C39.0858 4.00394 39.5324 3.68587 40.0299 3.46955C40.5275 3.25324 41.0648 3.14348 41.6073 3.14735C43.6099 3.25743 45.2119 4.29321 46.7138 5.4841C47.4872 6.12115 48.2134 6.81349 48.8865 7.55565C49.0692 7.70738 49.1885 7.92194 49.2209 8.15713C49.2534 8.39233 49.1966 8.63115 49.0617 8.82661C48.1365 10.5208 46.9676 12.0701 45.5924 13.4251L45.3771 13.6302Z" fill="#ED88B4"/>
<path d="M48.8765 18.1586C48.8415 18.0986 48.8014 18.0385 48.7614 17.9785L48.471 17.4781C47.5248 15.7418 47.1093 14.0155 48.2057 12.3993C48.4934 11.9442 48.8783 11.5583 49.3327 11.2692C49.7871 10.9801 50.2998 10.795 50.8342 10.7271C51.3685 10.6592 51.9113 10.7102 52.4236 10.8765C52.9359 11.0427 53.4052 11.3201 53.7977 11.6888C54.2433 12.0791 54.4285 12.0541 54.844 11.6488C55.5299 10.9682 58.0581 10.0325 59.8503 11.944C60.2468 12.393 60.5439 12.9206 60.7225 13.4922C60.9011 14.0639 60.957 14.6667 60.8866 15.2615C60.5262 17.4281 59.1895 19.0893 57.7026 20.5955C56.9087 21.3693 56.0586 22.0834 55.1594 22.7321C54.9721 22.9244 54.7179 23.0375 54.4495 23.0477C54.1811 23.058 53.9191 22.9646 53.7176 22.7871C51.9624 21.5717 50.3939 20.1068 49.0618 18.4388L48.8765 18.1586Z" fill="#F6A2C6"/>
<path d="M40.5761 21.346C40.5761 21.2809 40.6161 21.2109 40.6411 21.1458L40.8164 20.6155C41.5122 18.7941 42.5435 17.373 44.4609 17.1629C44.9859 17.0885 45.5208 17.131 46.0274 17.2873C46.534 17.4436 46.9998 17.7098 47.3915 18.0669C47.7833 18.424 48.0912 18.8632 48.2934 19.353C48.4956 19.8429 48.587 20.3714 48.5611 20.9007C48.5611 21.4811 48.6913 21.6062 49.262 21.6562C50.2132 21.7363 52.5361 23.0323 52.2658 25.5942C52.1845 26.1838 51.9792 26.7495 51.6634 27.254C51.3476 27.7586 50.9284 28.1905 50.4335 28.5214C48.5611 29.6222 46.4785 29.6823 44.3909 29.5221C43.3023 29.4325 42.2215 29.2653 41.1568 29.0218C40.8925 29.0039 40.6452 28.8855 40.4655 28.691C40.2858 28.4966 40.1874 28.2407 40.1906 27.976C39.9862 25.879 40.0891 23.7635 40.496 21.6963L40.5761 21.346Z" fill="#F6A2C6"/>
<path d="M13.3468 42.4118L13.547 42.4969L14.0477 42.7421C15.7999 43.6627 17.1015 44.8737 17.0865 46.8401C17.0988 47.3785 16.9923 47.913 16.7743 48.4055C16.5564 48.898 16.2325 49.3365 15.8256 49.6896C15.4188 50.0427 14.9391 50.3018 14.4206 50.4484C13.9022 50.595 13.3578 50.6256 12.8261 50.5379C12.2354 50.4578 12.0952 50.5829 11.9751 51.1534C11.7798 52.0991 10.1878 54.2857 7.63461 53.6552C7.05405 53.4999 6.51277 53.224 6.04609 52.8455C5.57941 52.467 5.19782 51.9944 4.9262 51.4586C4.02006 49.4571 4.2153 47.3205 4.62081 45.2389C4.85326 44.1514 5.16618 43.0827 5.55699 42.0415C5.60598 41.777 5.75505 41.5416 5.97322 41.3841C6.19138 41.2266 6.46187 41.1592 6.72847 41.1959C8.86653 41.2502 10.9851 41.6177 13.0164 42.2867L13.3468 42.4118Z" fill="#EB88B6"/>
<path d="M13.9425 54.7961H14.0977H14.5032C15.905 54.7961 17.1215 55.1614 17.7423 56.4073C17.9246 56.7438 18.0302 57.1164 18.0517 57.4984C18.0731 57.8805 18.0098 58.2625 17.8663 58.6173C17.7228 58.972 17.5027 59.2907 17.2216 59.5505C16.9405 59.8103 16.6055 60.0048 16.2404 60.1201C15.8449 60.2602 15.7949 60.3803 15.905 60.7806C16.0169 61.4319 15.8806 62.1015 15.5229 62.6573C15.1651 63.213 14.612 63.6146 13.9726 63.7828C13.5561 63.873 13.1254 63.8751 12.7081 63.7889C12.2908 63.7027 11.8961 63.5302 11.5495 63.2824C10.333 62.2817 9.77228 60.8957 9.35676 59.4446C9.1563 58.6837 9.01075 57.9095 8.92121 57.1278C8.86809 56.944 8.88723 56.7468 8.97469 56.5766C9.06216 56.4064 9.21136 56.2761 9.3918 56.2121C10.76 55.5544 12.2173 55.1009 13.7172 54.8661L13.9425 54.7961Z" fill="#FAC2DB"/>
<path d="M18.6434 69.8124L18.4933 69.5822L18.1128 68.9517C16.8712 66.715 16.3205 64.4784 17.7323 62.3718C18.1014 61.7796 18.597 61.2764 19.1836 60.8983C19.7701 60.5202 20.4332 60.2764 21.1251 60.1846C21.817 60.0928 22.5207 60.1551 23.1857 60.3672C23.8507 60.5792 24.4605 60.9357 24.9714 61.4111C25.5471 61.9114 25.7924 61.8814 26.3231 61.351C27.2092 60.4653 30.4733 59.2294 32.8313 61.6913C33.3499 62.2706 33.7398 62.9532 33.9753 63.694C34.2109 64.4349 34.2868 65.2172 34.198 65.9895C33.7525 68.7966 32.0303 70.9532 30.1179 72.9197C29.093 73.9275 27.9971 74.8606 26.8388 75.7118C26.5971 75.9618 26.2686 76.1096 25.9211 76.1245C25.5736 76.1394 25.2336 76.0203 24.9714 75.7918C22.6926 74.223 20.6552 72.33 18.9238 70.1726L18.6434 69.8124Z" fill="#EB3575"/>
<path d="M35.8001 64.1781L35.69 64.018L35.4046 63.5827C34.4834 62.0315 34.0479 60.4703 34.9941 58.9542C35.2415 58.5325 35.5787 58.1704 35.9817 57.8935C36.3848 57.6167 36.8438 57.4318 37.3263 57.3521C37.8089 57.2723 38.303 57.2996 38.7738 57.4321C39.2446 57.5646 39.6804 57.7989 40.0504 58.1186C40.466 58.4588 40.6362 58.4338 41.0016 58.0485C41.6364 57.4881 42.4588 57.1869 43.3056 57.2045C44.1523 57.2221 44.9615 57.5573 45.5724 58.1436C45.95 58.5417 46.2396 59.0147 46.4224 59.5319C46.6053 60.0492 46.6773 60.599 46.6337 61.1458C46.3784 63.1474 45.2119 64.6935 43.9103 66.1196C43.2107 66.8513 42.4595 67.5319 41.6625 68.1561C41.4975 68.3366 41.2696 68.4471 41.0256 68.4648C40.7816 68.4825 40.5401 68.406 40.3508 68.2512C38.7108 67.1987 37.2348 65.9106 35.9703 64.4283L35.8001 64.1781Z" fill="#E13A75"/>
<path d="M48.4409 81.9014C48.4409 82.0165 48.4159 82.1266 48.4009 82.2417L48.2607 83.1323C47.6549 86.1996 46.4084 88.7265 43.4246 89.5822C42.6136 89.8418 41.7554 89.9194 40.911 89.8093C40.0666 89.6992 39.2569 89.4043 38.5396 88.9455C37.8224 88.4867 37.2153 87.8754 36.7616 87.1551C36.308 86.4348 36.019 85.6233 35.9152 84.7786C35.77 83.8529 35.5197 83.6928 34.6035 83.7778C33.1016 83.9079 29.0465 82.4869 28.8062 78.3488C28.7804 77.3982 28.9551 76.4529 29.3191 75.5744C29.6831 74.6959 30.2282 73.9039 30.9189 73.2499C33.5522 70.9782 36.8664 70.3127 40.2056 69.9825C41.9583 69.8491 43.7183 69.8407 45.4722 69.9575C46.4184 70.0025 46.9741 70.2777 47.2845 71.3535C48.1777 74.612 48.5893 77.9835 48.506 81.361L48.4409 81.9014Z" fill="#F7C4DB"/>
<path d="M40.5511 36.6375L40.486 36.4824L40.3258 36.0771C39.8252 34.636 39.7401 33.2649 40.7864 32.1741C41.0647 31.8659 41.4077 31.6229 41.7907 31.4624C42.1738 31.3018 42.5877 31.2278 43.0027 31.2455C43.4177 31.2631 43.8237 31.3721 44.1917 31.5647C44.5598 31.7572 44.8808 32.0285 45.1319 32.3593C45.4172 32.7145 45.5624 32.7195 45.9329 32.4643C46.556 32.1108 47.2893 32.0041 47.9875 32.1654C48.6857 32.3266 49.2978 32.744 49.7026 33.335C49.9453 33.7281 50.1024 34.1678 50.1636 34.6256C50.2248 35.0834 50.1889 35.549 50.0581 35.992C49.5074 37.5982 48.2758 38.684 46.9491 39.6397C46.2438 40.1261 45.5043 40.5608 44.7364 40.9407C44.5692 41.0623 44.3617 41.1151 44.1567 41.0881C43.9517 41.0611 43.7649 40.9564 43.635 40.7956C42.4591 39.6398 41.4589 38.3181 40.6662 36.8726L40.5511 36.6375Z" fill="#F7A1C6"/>
<path d="M45.7426 45.2739C45.7426 45.2189 45.7426 45.1589 45.7426 45.1038V44.6485C45.7876 43.0723 46.1931 41.7113 47.6049 41.0358C47.986 40.8362 48.4067 40.7235 48.8366 40.7058C49.2665 40.688 49.6949 40.7657 50.0913 40.9331C50.4876 41.1005 50.8418 41.3536 51.1287 41.6742C51.4155 41.9947 51.6277 42.3748 51.7501 42.7871C51.9053 43.2374 52.0405 43.2875 52.491 43.1824C53.2236 43.0666 53.9729 43.2295 54.5911 43.639C55.2093 44.0484 55.6514 44.6747 55.8302 45.394C55.9231 45.8643 55.9159 46.3489 55.8089 46.8162C55.702 47.2834 55.4977 47.723 55.2095 48.1061C54.0881 49.4571 52.5011 50.0675 50.864 50.5079C50.0051 50.7239 49.1317 50.8778 48.2507 50.9682C48.0458 51.0196 47.829 50.9921 47.6435 50.891C47.458 50.7899 47.3173 50.6228 47.2494 50.4228C46.5175 48.875 46.0181 47.2277 45.7676 45.5341L45.7426 45.2739Z" fill="#FCC1DB"/>
<path d="M52.1707 30.8381C52.1707 30.7681 52.1707 30.703 52.1957 30.638L52.2808 30.1376C52.6413 28.3362 53.3822 26.8551 55.1344 26.3598C55.6116 26.2081 56.1164 26.1637 56.6127 26.2297C57.109 26.2957 57.5847 26.4705 58.0056 26.7415C58.4265 27.0126 58.7823 27.3732 59.0475 27.7977C59.3128 28.2222 59.4809 28.6999 59.54 29.1969C59.6251 29.7423 59.7753 29.8374 60.3109 29.7923C61.2071 29.7223 63.57 30.5629 63.7002 32.9947C63.7159 33.5552 63.6125 34.1126 63.3968 34.6301C63.181 35.1476 62.8579 35.6135 62.4486 35.997C60.8967 37.323 58.9442 37.7083 56.9918 37.8934C55.9617 37.9659 54.9279 37.9659 53.8979 37.8934C53.644 37.9109 53.393 37.8312 53.1959 37.6704C52.9988 37.5096 52.8703 37.2798 52.8365 37.0278C52.3203 35.1105 52.0876 33.128 52.1457 31.1434L52.1707 30.8381Z" fill="#EB5B98"/>
<path d="M64.1157 40.4403C64.1157 40.3553 64.0706 40.2702 64.0456 40.1801L63.8754 39.4896C63.3747 37.0728 63.5149 34.8561 65.4223 33.32C65.9338 32.8812 66.536 32.5609 67.1858 32.3821C67.8357 32.2033 68.517 32.1703 69.1811 32.2855C69.8452 32.4008 70.4756 32.6614 71.0271 33.0487C71.5785 33.436 72.0375 33.9405 72.371 34.5259C72.7615 35.1514 72.9918 35.1964 73.6376 34.8611C74.709 34.3007 78.0732 34.1056 79.51 37.0428C79.8172 37.7273 79.976 38.4691 79.976 39.2194C79.976 39.9697 79.8172 40.7115 79.51 41.396C78.2885 43.8529 76.0807 45.349 73.7478 46.61C72.5125 47.2408 71.2344 47.7842 69.923 48.2362C69.6284 48.3972 69.2831 48.4387 68.9587 48.352C68.6343 48.2654 68.3557 48.0573 68.1808 47.7708C66.5325 45.6696 65.2017 43.3381 64.2308 40.8506L64.1157 40.4403Z" fill="#EC89B4"/>
<path d="M50.2031 67.956H50.083H49.7676C48.6662 67.956 47.705 67.7208 47.1944 66.7551C47.0447 66.4944 46.9547 66.2038 46.931 65.9041C46.9073 65.6045 46.9504 65.3034 47.0572 65.0224C47.164 64.7415 47.3318 64.4877 47.5486 64.2794C47.7654 64.0711 48.0257 63.9135 48.3108 63.8179C48.6161 63.6978 48.6562 63.6027 48.5611 63.3175C48.4606 62.8096 48.5546 62.2825 48.8244 61.8405C49.0941 61.3985 49.5201 61.0738 50.0179 60.9307C50.3433 60.853 50.6814 60.8449 51.0102 60.907C51.3389 60.9691 51.6507 61.0999 51.9253 61.291C52.8211 62.0641 53.4485 63.1012 53.7176 64.2532C53.8903 64.847 54.0208 65.4523 54.1081 66.0645C54.1537 66.2073 54.1428 66.3622 54.0776 66.4971C54.0124 66.6321 53.8978 66.737 53.7576 66.7901C52.6965 67.3332 51.5613 67.7176 50.3884 67.9309L50.2031 67.956Z" fill="#FBC2DB"/>
<path d="M47.3847 56.5975L47.3346 56.5224L47.2145 56.3223C46.829 55.6167 46.6588 54.9112 47.1093 54.2507C47.228 54.0663 47.3856 53.9101 47.5711 53.7931C47.7566 53.6761 47.9655 53.6012 48.1831 53.5735C48.4006 53.5459 48.6217 53.5662 48.8306 53.633C49.0394 53.6999 49.2312 53.8116 49.3922 53.9605C49.5774 54.1206 49.6525 54.1106 49.8227 53.9605C50.1154 53.7188 50.4887 53.5968 50.8677 53.6191C51.2466 53.6414 51.6031 53.8063 51.8653 54.0806C52.027 54.2654 52.1483 54.4819 52.2216 54.7163C52.2949 54.9506 52.3185 55.1976 52.2908 55.4416C52.0949 56.2852 51.6398 57.0463 50.9892 57.6182C50.6643 57.9355 50.3162 58.2281 49.9479 58.4939C49.8688 58.5689 49.764 58.6106 49.655 58.6106C49.5461 58.6106 49.4412 58.5689 49.3622 58.4939C48.6459 57.9961 48.0066 57.3959 47.4648 56.7125L47.3847 56.5975Z" fill="#FEC0D9"/>
<path d="M75.3899 10.8531C75.3899 10.9382 75.3899 11.0233 75.3649 11.1083L75.2798 11.7888C74.8943 14.1256 74.0082 16.0621 71.7754 16.7926C71.1669 17.0113 70.5176 17.0926 69.8739 17.0308C69.2303 16.9689 68.6084 16.7654 68.0527 16.4349C67.4971 16.1044 67.0216 15.655 66.6603 15.119C66.299 14.5831 66.0609 13.9738 65.963 13.335C65.8279 12.6345 65.6376 12.5194 64.9618 12.5995C63.8103 12.7346 60.7315 11.7538 60.4561 8.62647C60.4174 7.90615 60.5312 7.18577 60.79 6.51238C61.0488 5.83899 61.4468 5.22774 61.958 4.71854C63.9004 2.93721 66.3936 2.35677 68.9117 2.02652C70.2415 1.88127 71.5801 1.83444 72.9168 1.88642C73.2342 1.84212 73.5565 1.92122 73.8173 2.10741C74.0781 2.2936 74.2575 2.57269 74.3186 2.88717C75.0758 5.33654 75.4672 7.88422 75.48 10.4478L75.3899 10.8531Z" fill="#FAC2DB"/>
<path d="M71.8455 21.386C71.8455 21.321 71.8455 21.2559 71.8455 21.1909L71.9005 20.6905C72.1759 18.9242 72.8267 17.4581 74.5088 16.8977C74.966 16.729 75.455 16.6634 75.9405 16.7058C76.4261 16.7481 76.8962 16.8973 77.3173 17.1427C77.7383 17.388 78.0999 17.7234 78.376 18.1248C78.6521 18.5263 78.836 18.9838 78.9144 19.4646C79.0195 19.965 79.1647 20.0751 79.6853 20.01C80.5249 19.9843 81.3436 20.2744 81.9795 20.8229C82.6154 21.3714 83.0223 22.1384 83.1197 22.9722C83.156 23.5137 83.078 24.0568 82.8909 24.5662C82.7037 25.0757 82.4116 25.5401 82.0333 25.9294C80.5815 27.2855 78.7091 27.7408 76.8117 28.006C75.8152 28.1261 74.8112 28.1713 73.8079 28.1411C73.5684 28.1765 73.3244 28.1182 73.1268 27.9784C72.9291 27.8386 72.7929 27.6281 72.7466 27.3905C72.1581 25.5502 71.8443 23.6331 71.8154 21.7013L71.8455 21.386Z" fill="#EB3575"/>
<path d="M60.6364 19.5497C60.6364 19.4896 60.6714 19.4296 60.6864 19.3745L60.8416 18.9142C61.4274 17.348 62.3085 16.1221 63.9605 15.9119C64.4121 15.8444 64.873 15.8775 65.3103 16.0088C65.7476 16.1401 66.1505 16.3663 66.4901 16.6714C66.8297 16.9764 67.0977 17.3526 67.2749 17.7732C67.4521 18.1938 67.5341 18.6484 67.515 19.1043C67.515 19.6047 67.6302 19.7148 68.1208 19.7548C68.8955 19.892 69.5906 20.3144 70.0688 20.9388C70.5471 21.5632 70.7737 22.3441 70.704 23.1273C70.6338 23.6305 70.4584 24.1133 70.1893 24.5443C69.9202 24.9753 69.5634 25.345 69.1421 25.6292C67.5551 26.5999 65.7478 26.66 63.9505 26.5449C63.0131 26.462 62.0828 26.3115 61.167 26.0946C60.9404 26.0817 60.7275 25.9819 60.5726 25.816C60.4178 25.65 60.333 25.4308 60.336 25.2039C60.155 23.4104 60.2359 21.6001 60.5763 19.8299L60.6364 19.5497Z" fill="#E85C9A"/>
<path d="M78.7691 49.0968C78.7441 49.0368 78.7241 48.9767 78.704 48.9167L78.5438 48.4163C78.0432 46.72 78.0432 45.1338 79.3098 43.9129C79.651 43.5741 80.0629 43.315 80.5161 43.1542C80.9693 42.9933 81.4525 42.9347 81.9311 42.9825C82.4096 43.0304 82.8716 43.1835 83.284 43.4308C83.6963 43.6782 84.0488 44.0137 84.3161 44.4133C84.6265 44.8386 84.8167 44.8586 85.2323 44.5834C85.9745 44.2137 86.8284 44.1355 87.6255 44.3643C88.4226 44.5931 89.1049 45.1123 89.5377 45.8194C89.7955 46.2888 89.9511 46.8075 89.9943 47.3413C90.0374 47.8751 89.9671 48.4119 89.788 48.9167C89.0521 50.733 87.5602 51.9189 85.9682 52.9197C85.1246 53.438 84.2445 53.8946 83.3349 54.2857C83.1338 54.416 82.8903 54.4642 82.6547 54.4205C82.419 54.3767 82.2091 54.2443 82.0683 54.0505C80.7806 52.6435 79.7061 51.0555 78.8793 49.337L78.7691 49.0968Z" fill="#E75D9A"/>
<path d="M81.2272 35.7418L81.092 35.6067L80.7416 35.2364C79.5951 33.8954 78.9093 32.4694 79.5651 30.8481C79.731 30.3967 79.9948 29.9875 80.3377 29.6501C80.6806 29.3126 81.094 29.0552 81.5482 28.8964C82.0024 28.7376 82.4861 28.6813 82.9647 28.7315C83.4433 28.7817 83.9048 28.9372 84.3161 29.1869C84.7766 29.4421 84.9368 29.387 85.2222 28.9567C85.7404 28.3095 86.4832 27.8808 87.3031 27.7557C88.1229 27.6305 88.9599 27.8181 89.6478 28.2812C90.0747 28.6013 90.4292 29.0079 90.688 29.4744C90.9468 29.9409 91.1041 30.4568 91.1497 30.9882C91.2448 32.9447 90.3837 34.646 89.3674 36.2372C88.8173 37.0607 88.2083 37.8433 87.5451 38.5789C87.4186 38.7826 87.218 38.9292 86.9855 38.988C86.753 39.0468 86.5068 39.0132 86.2986 38.8942C84.5378 38.1584 82.8961 37.1651 81.4274 35.947L81.2272 35.7418Z" fill="#FAC2DB"/>
<path d="M101.778 27.6407L101.938 27.5457L102.364 27.3155C103.866 26.5749 105.368 26.2847 106.704 27.2805C107.082 27.5419 107.397 27.8837 107.628 28.2813C107.858 28.6789 107.997 29.1225 108.035 29.5803C108.073 30.038 108.01 30.4986 107.849 30.9289C107.688 31.3592 107.434 31.7485 107.105 32.0691C106.754 32.4343 106.769 32.5694 107.105 32.9597C107.578 33.5937 107.795 34.3819 107.715 35.1686C107.634 35.9552 107.261 36.6829 106.669 37.2079C106.272 37.5298 105.811 37.764 105.316 37.8951C104.822 38.0262 104.305 38.0512 103.801 37.9685C101.968 37.5832 100.602 36.3823 99.37 35.0613C98.7331 34.3582 98.1491 33.6089 97.6228 32.8196C97.4643 32.6539 97.3759 32.4334 97.3759 32.2042C97.3759 31.9749 97.4643 31.7544 97.6228 31.5887C98.7274 30.1398 100.04 28.8617 101.518 27.7959L101.778 27.6407Z" fill="#F8A1C6"/>
<path d="M90.7843 40.7356C90.7843 40.6505 90.7843 40.5654 90.8243 40.4804L90.9545 39.7898C91.4902 37.4281 92.5164 35.5016 94.8444 34.9062C95.4787 34.7257 96.1449 34.6867 96.796 34.7917C97.447 34.8968 98.0671 35.1434 98.6124 35.5142C99.1576 35.885 99.6148 36.371 99.9516 36.9377C100.288 37.5044 100.497 38.1381 100.562 38.7941C100.657 39.5146 100.842 39.6447 101.563 39.6097C102.744 39.5397 105.828 40.7306 105.923 43.943C105.921 44.6787 105.764 45.4058 105.463 46.0772C105.163 46.7486 104.724 47.3495 104.176 47.8409C102.083 49.5372 99.5052 49.9775 96.907 50.1576C95.548 50.2243 94.1859 50.1909 92.8318 50.0575C92.5036 50.0819 92.1786 49.979 91.9242 49.7704C91.6697 49.5617 91.5054 49.2632 91.4651 48.9367C90.8434 46.3909 90.6005 43.7675 90.7442 41.1509L90.7843 40.7356Z" fill="#F6A2C6"/>
<path d="M93.8081 54.4358C93.8104 54.3942 93.8104 54.3524 93.8081 54.3107V53.9905C93.8081 52.8646 94.0634 51.8839 95.0497 51.3685C95.3176 51.2177 95.6156 51.128 95.9223 51.1057C96.229 51.0834 96.5369 51.1291 96.8239 51.2395C97.1108 51.3499 97.3699 51.5224 97.5824 51.7445C97.795 51.9666 97.9558 52.2329 98.0534 52.5244C98.1686 52.8396 98.2687 52.8797 98.5891 52.7846C99.1085 52.6847 99.6464 52.7836 100.096 53.0617C100.546 53.3397 100.875 53.7766 101.017 54.2857C101.095 54.6183 101.102 54.9635 101.037 55.2989C100.972 55.6343 100.838 55.9523 100.642 56.2322C99.8757 57.2329 98.7543 57.6933 97.6029 58.0485C96.9957 58.2219 96.3766 58.3507 95.7505 58.4338C95.6051 58.4806 95.4472 58.4691 95.3099 58.402C95.1727 58.3348 95.0669 58.2171 95.0146 58.0735C94.4632 56.989 94.0752 55.8289 93.8632 54.631L93.8081 54.4358Z" fill="#E03B75"/>
<path d="M94.7392 61.4661C94.7392 61.5161 94.7392 61.5612 94.7392 61.6112L94.7842 62.0015C94.8844 63.3525 94.6591 64.5534 93.5076 65.2589C93.199 65.4644 92.8486 65.5987 92.4816 65.6523C92.1147 65.7058 91.7405 65.6772 91.386 65.5685C91.0315 65.4598 90.7056 65.2737 90.4318 65.0238C90.158 64.7738 89.9432 64.4662 89.803 64.1231C89.6328 63.7528 89.5076 63.7178 89.1371 63.8529C88.5199 64.0175 87.8634 63.9449 87.2971 63.6494C86.7308 63.3539 86.2959 62.857 86.0783 62.2567C85.9576 61.8623 85.9211 61.4469 85.9711 61.0375C86.0211 60.6281 86.1565 60.2337 86.3686 59.8799C87.2097 58.624 88.5163 57.9585 89.8731 57.4331C90.5896 57.1733 91.3242 56.9659 92.0708 56.8126C92.2427 56.7458 92.4335 56.747 92.6046 56.8157C92.7757 56.8845 92.9142 57.0158 92.992 57.1829C93.7444 58.4456 94.3093 59.8109 94.6691 61.2359L94.7392 61.4661Z" fill="#FFC0DC"/>
<path d="M83.9706 15.7818L83.7804 15.8969L83.2798 16.1821C81.4675 17.1078 79.6752 17.4831 78.0382 16.3022C77.5741 15.9936 77.1844 15.5859 76.8972 15.1084C76.61 14.631 76.4324 14.0957 76.3773 13.5413C76.3222 12.987 76.391 12.4273 76.5787 11.9027C76.7663 11.3781 77.0682 10.9017 77.4624 10.5079C77.878 10.0626 77.8629 9.8674 77.4624 9.43208C76.7866 8.70153 75.8955 6.07456 77.913 4.29322C78.3884 3.89823 78.9417 3.60767 79.5368 3.44042C80.132 3.27318 80.7557 3.233 81.3674 3.3225C83.5901 3.75782 85.2573 5.18389 86.7692 6.76007C87.5398 7.60055 88.2492 8.49518 88.8918 9.43708C89.0887 9.63734 89.1991 9.90687 89.1991 10.1876C89.1991 10.4684 89.0887 10.738 88.8918 10.9382C87.5844 12.7078 86.0222 14.2742 84.256 15.5867L83.9706 15.7818Z" fill="#EC89B4"/>
<path d="M101.758 15.2714L101.933 15.5366L102.394 16.2472C103.896 18.7791 104.597 21.361 103.1 23.9279C101.302 27.0152 97.718 27.7708 95.0045 25.5792C94.3337 25.0338 94.0634 25.0788 93.5026 25.7493C92.5414 26.8501 88.9269 28.5314 86.1985 25.8143C85.586 25.1547 85.1171 24.3751 84.8216 23.525C84.526 22.6749 84.4101 21.7728 84.4813 20.8756C84.8618 17.5532 86.7041 14.8962 88.7717 12.4543C89.8753 11.2039 91.0665 10.0334 92.3362 8.9517C93.007 8.36126 93.5627 8.17112 94.4288 8.72153C97.0726 10.406 99.4458 12.4811 101.468 14.8761L101.758 15.2714Z" fill="#EB3575"/>
<path d="M57.6876 39.4046L57.7677 39.3495L57.983 39.2094C58.749 38.7491 59.5199 38.5289 60.2709 38.9943C60.48 39.1163 60.6598 39.2828 60.7974 39.4819C60.9351 39.6811 61.0272 39.9081 61.0673 40.1468C61.1074 40.3855 61.0946 40.6301 61.0296 40.8633C60.9646 41.0964 60.8492 41.3125 60.6914 41.4961C60.5262 41.7063 60.5362 41.7863 60.7265 41.9665C61.0054 42.2785 61.1562 42.6843 61.1487 43.1027C61.1413 43.521 60.9762 43.9212 60.6864 44.2232C60.4885 44.4137 60.2521 44.5597 59.993 44.6512C59.7339 44.7427 59.4582 44.7776 59.1845 44.7536C58.2441 44.576 57.3829 44.1089 56.7214 43.4176C56.3621 43.0729 56.0275 42.7034 55.7202 42.3117C55.6353 42.2272 55.5837 42.1151 55.5745 41.9958C55.5653 41.8764 55.5992 41.7577 55.6701 41.6613C56.1948 40.8499 56.8358 40.12 57.5725 39.4946L57.6876 39.4046Z" fill="#F99DC5"/>
<path d="M16.3405 19.2895L16.3055 19.2394L16.2204 19.0943C16.0666 18.8837 15.9776 18.6329 15.9643 18.3725C15.9509 18.1121 16.0138 17.8535 16.1453 17.6282C16.2278 17.4959 16.3389 17.3835 16.4703 17.2994C16.6017 17.2152 16.7502 17.1614 16.905 17.1417C17.0599 17.1221 17.2171 17.1371 17.3654 17.1858C17.5137 17.2345 17.6493 17.3155 17.7623 17.4231C17.8925 17.5332 17.9475 17.5282 18.0677 17.4231C18.2774 17.2524 18.5438 17.1669 18.8137 17.1836C19.0837 17.2003 19.3374 17.3179 19.5245 17.5131C19.6396 17.644 19.7259 17.7976 19.7776 17.964C19.8294 18.1304 19.8455 18.3058 19.8249 18.4789C19.6836 19.0759 19.3578 19.6134 18.8937 20.015C18.6636 20.2392 18.4177 20.4466 18.1578 20.6355C18.1013 20.6879 18.0271 20.717 17.95 20.717C17.873 20.717 17.7988 20.6879 17.7423 20.6355C17.2339 20.2815 16.7802 19.855 16.3956 19.3695L16.3405 19.2895Z" fill="#F4C4DD"/>
<path d="M19.5246 32.6595L19.4845 32.6295L19.3694 32.5494C19.1775 32.4393 19.0221 32.2754 18.9224 32.078C18.8228 31.8806 18.7832 31.6583 18.8087 31.4386C18.8285 31.3085 18.8768 31.1844 18.95 31.0751C19.0233 30.9658 19.1197 30.874 19.2325 30.8061C19.3453 30.7383 19.4717 30.6961 19.6026 30.6826C19.7336 30.6691 19.8659 30.6846 19.9901 30.728C20.1253 30.7731 20.1654 30.728 20.2154 30.618C20.319 30.4155 20.4945 30.2591 20.7076 30.1795C20.9207 30.0998 21.1558 30.1028 21.3669 30.1876C21.5008 30.2472 21.6199 30.3355 21.7159 30.4462C21.812 30.5568 21.8825 30.6872 21.9226 30.8281C22.0208 31.335 21.9578 31.86 21.7423 32.3292C21.6425 32.5822 21.5219 32.8266 21.3819 33.0598C21.3582 33.1204 21.3127 33.1699 21.2543 33.1986C21.196 33.2273 21.129 33.2331 21.0665 33.2149C20.556 33.1197 20.0619 32.9512 19.5997 32.7145L19.5246 32.6595Z" fill="#ED80AE"/>
<path d="M1.44183 44.5334L1.40178 44.4934L1.29665 44.3833C1.11956 44.2271 0.991343 44.0232 0.927402 43.7959C0.863461 43.5687 0.866514 43.3279 0.936194 43.1023C0.981618 42.9718 1.0554 42.8529 1.15225 42.7543C1.2491 42.6557 1.3666 42.5797 1.49631 42.5319C1.62603 42.484 1.76474 42.4655 1.90247 42.4776C2.0402 42.4897 2.17354 42.5322 2.2929 42.6019C2.42306 42.677 2.46812 42.657 2.54822 42.5319C2.6906 42.3399 2.90075 42.2093 3.13599 42.1665C3.37123 42.1238 3.61394 42.1721 3.81482 42.3017C3.93556 42.3871 4.03806 42.4956 4.11628 42.6211C4.19451 42.7465 4.2469 42.8863 4.27039 43.0323C4.26827 43.5902 4.09338 44.1338 3.76976 44.5884C3.62206 44.8351 3.45464 45.0693 3.26913 45.289C3.25244 45.3189 3.22999 45.3453 3.20306 45.3666C3.17614 45.3878 3.14527 45.4036 3.11223 45.4129C3.0792 45.4222 3.04465 45.4249 3.01057 45.4208C2.9765 45.4167 2.94357 45.4059 2.91368 45.389C2.40542 45.1861 1.92974 44.9096 1.50191 44.5684L1.44183 44.5334Z" fill="#F53375"/>
<path d="M38.2181 33.0648V33.1649L38.163 33.4351C37.9327 34.3608 37.5172 35.1063 36.5961 35.3215C36.3456 35.3894 36.0832 35.401 35.8277 35.3555C35.5722 35.3099 35.33 35.2084 35.1184 35.0582C34.9069 34.908 34.7312 34.7128 34.6041 34.4867C34.477 34.2605 34.4016 34.009 34.3833 33.7503C34.3532 33.4651 34.2781 33.4151 33.9978 33.4251C33.5512 33.3965 33.1315 33.2019 32.8211 32.8797C32.5108 32.5575 32.3323 32.1309 32.3207 31.6838C32.3298 31.3977 32.3981 31.1166 32.5213 30.8582C32.6445 30.5999 32.82 30.3698 33.0366 30.1826C33.8815 29.6049 34.8868 29.3073 35.9102 29.332C36.4452 29.3179 36.9805 29.3413 37.5122 29.402C37.6368 29.4014 37.7571 29.4472 37.8496 29.5305C37.9422 29.6138 38.0004 29.7285 38.0128 29.8524C38.2385 30.8582 38.3127 31.892 38.2331 32.9197L38.2181 33.0648Z" fill="#E73C78"/>
<path d="M34.5885 8.29622L34.6636 8.26119L34.8589 8.18113C35.5597 7.91593 36.2256 7.85089 36.7763 8.34626C36.9336 8.47582 37.0603 8.63857 37.1472 8.82284C37.2342 9.0071 37.2793 9.20832 37.2793 9.41206C37.2793 9.6158 37.2342 9.81701 37.1472 10.0013C37.0603 10.1855 36.9336 10.3483 36.7763 10.4779C36.6111 10.623 36.6061 10.693 36.7362 10.8681C36.9194 11.1683 36.983 11.5263 36.9143 11.8711C36.8457 12.2159 36.6499 12.5223 36.3658 12.7295C36.1762 12.853 35.9632 12.9359 35.74 12.9729C35.5168 13.0099 35.2884 13.0003 35.0691 12.9447C34.3187 12.6593 33.6775 12.1445 33.2368 11.4736C32.9802 11.1351 32.7477 10.7789 32.5409 10.4078C32.4793 10.3278 32.4507 10.2271 32.4609 10.1266C32.4711 10.0262 32.5195 9.93338 32.596 9.8674C33.1454 9.27835 33.7778 8.77264 34.4734 8.36627L34.5885 8.29622Z" fill="#EB3876"/>
<path d="M67.2046 31.3835L67.1495 31.4286L66.9943 31.5537C66.4286 31.964 65.8479 32.1942 65.2271 31.8839C65.0549 31.8047 64.9025 31.6882 64.7808 31.543C64.6591 31.3978 64.5711 31.2274 64.5232 31.0441C64.4753 30.8608 64.4687 30.6691 64.5039 30.483C64.539 30.2968 64.615 30.1207 64.7264 29.9675C64.8416 29.7924 64.8216 29.7273 64.6614 29.6022C64.4226 29.3797 64.2762 29.0757 64.2512 28.7504C64.2261 28.4251 64.3243 28.1023 64.5262 27.8459C64.6667 27.6889 64.8388 27.5631 65.0311 27.4769C65.2235 27.3907 65.4318 27.3459 65.6426 27.3455C66.3832 27.418 67.083 27.7187 67.6451 28.2062C67.9514 28.448 68.2407 28.7105 68.5112 28.9918C68.5865 29.0486 68.6372 29.1321 68.653 29.2251C68.6689 29.3181 68.6486 29.4136 68.5963 29.4921C68.2549 30.163 67.8144 30.7786 67.2897 31.3185L67.2046 31.3835Z" fill="#F1A4C7"/>
<path d="M72.301 31.5587V31.4786L72.2559 31.2734C72.1258 30.5379 72.1808 29.8724 72.7565 29.4271C72.9131 29.2988 73.0961 29.2067 73.2924 29.1574C73.4888 29.1082 73.6936 29.103 73.8922 29.1422C74.0908 29.1814 74.2783 29.2641 74.4411 29.3843C74.604 29.5045 74.7382 29.6592 74.8342 29.8374C74.9493 30.0275 75.0194 30.0425 75.2146 29.9475C75.5401 29.8239 75.9001 29.8269 76.2236 29.9556C76.547 30.0844 76.8104 30.3296 76.9618 30.643C77.0535 30.8494 77.1008 31.0727 77.1008 31.2985C77.1008 31.5243 77.0535 31.7476 76.9618 31.954C76.5416 32.6263 75.9221 33.151 75.1896 33.4551C74.815 33.6385 74.4267 33.7924 74.0281 33.9154C73.9409 33.9567 73.8414 33.9642 73.749 33.9364C73.6566 33.9087 73.5776 33.8478 73.5275 33.7653C73.0447 33.1217 72.66 32.4101 72.3861 31.6537L72.301 31.5587Z" fill="#F4A5C7"/>
<path d="M81.8179 41.7513L81.7729 41.7063L81.6527 41.5962C81.4425 41.4397 81.2829 41.2248 81.1939 40.9784C81.1049 40.732 81.0904 40.4648 81.1521 40.2102C81.1941 40.059 81.2694 39.9191 81.3723 39.8007C81.4752 39.6823 81.6032 39.5882 81.7471 39.5254C81.8909 39.4627 82.047 39.4327 82.2038 39.4378C82.3607 39.4428 82.5145 39.4828 82.654 39.5547C82.8092 39.6247 82.8592 39.6047 82.9393 39.4596C83.0912 39.2386 83.3201 39.0823 83.5812 39.0212C83.8424 38.9601 84.1169 38.9987 84.3511 39.1293C84.4981 39.2226 84.624 39.3455 84.7205 39.4903C84.8171 39.6351 84.8823 39.7985 84.9118 39.97C84.947 40.5825 84.7913 41.1908 84.4663 41.7113C84.3064 41.9902 84.1274 42.2577 83.9306 42.5119C83.8934 42.5795 83.8318 42.6306 83.7585 42.6547C83.6851 42.6789 83.6052 42.6743 83.5351 42.642C82.9498 42.4475 82.3964 42.1676 81.893 41.8114L81.8179 41.7513Z" fill="#F2A2C9"/>
<path d="M92.6816 30.2577L92.6415 30.1776L92.5514 29.9575C92.2661 29.1869 92.196 28.4563 92.7417 27.8459C92.8853 27.672 93.0663 27.5327 93.2713 27.4384C93.4762 27.344 93.6997 27.297 93.9253 27.3009C94.1509 27.3047 94.3727 27.3593 94.5742 27.4606C94.7758 27.5619 94.952 27.7072 95.0896 27.8859C95.2498 28.071 95.3299 28.071 95.5252 27.9309C95.8563 27.7307 96.2507 27.6622 96.6301 27.7391C97.0094 27.8161 97.3459 28.0328 97.5727 28.3462C97.709 28.5555 97.8 28.7909 97.8396 29.0374C97.8793 29.2839 97.8668 29.5359 97.803 29.7773C97.483 30.5979 96.9141 31.2978 96.176 31.7788C95.8032 32.0567 95.4099 32.3059 94.9995 32.5244C94.9113 32.5924 94.8005 32.6241 94.6897 32.6129C94.5789 32.6017 94.4766 32.5486 94.4038 32.4643C93.7526 31.857 93.1943 31.1574 92.7467 30.3878L92.6816 30.2577Z" fill="#E8477F"/>
<path d="M88.8919 7.26545V7.2054L88.8469 7.04528C88.7532 6.80132 88.7331 6.53524 88.7891 6.27998C88.8452 6.02473 88.9749 5.79151 89.1623 5.60921C89.2774 5.50366 89.4145 5.42494 89.5637 5.37874C89.713 5.33253 89.8706 5.31998 90.0253 5.342C90.1799 5.36401 90.3278 5.42004 90.4582 5.50605C90.5886 5.59206 90.6982 5.7059 90.7793 5.83938C90.8744 5.97949 90.9245 5.98949 91.0747 5.90443C91.3201 5.7963 91.5972 5.78411 91.8511 5.87027C92.1051 5.95643 92.3175 6.13467 92.4464 6.36978C92.5218 6.52491 92.5638 6.69409 92.5699 6.86645C92.5759 7.0388 92.5458 7.21051 92.4814 7.37053C92.1926 7.91296 91.7385 8.34937 91.1848 8.61646C90.9025 8.7717 90.6098 8.90713 90.3087 9.02177C90.2416 9.06016 90.1625 9.07169 90.0872 9.05405C90.012 9.03641 89.9462 8.9909 89.9032 8.9267C89.5095 8.44964 89.1858 7.9189 88.942 7.35051L88.8919 7.26545Z" fill="#F2A5C9"/>
<path d="M81.1471 59.3045V59.2294L81.102 59.0443C80.997 58.7352 80.9831 58.4024 81.0621 58.0857C81.1411 57.7689 81.3097 57.4816 81.5476 57.258C81.6861 57.1272 81.8523 57.0293 82.0339 56.9717C82.2155 56.9141 82.4078 56.8981 82.5964 56.925C82.785 56.952 82.9651 57.0211 83.1233 57.1273C83.2815 57.2334 83.4137 57.3739 83.51 57.5382C83.6202 57.7183 83.6853 57.7283 83.8655 57.6232C84.1633 57.4866 84.5025 57.4702 84.8121 57.5774C85.1218 57.6846 85.3781 57.9072 85.5276 58.1987C85.6139 58.3959 85.6584 58.6089 85.6584 58.8241C85.6584 59.0394 85.6139 59.2524 85.5276 59.4496C85.1533 60.1187 84.5841 60.6581 83.8955 60.9958C83.5456 61.1877 83.1825 61.3549 82.8092 61.4961C82.7687 61.5223 82.7234 61.5399 82.676 61.5481C82.6285 61.5562 82.5799 61.5546 82.5331 61.5433C82.4863 61.5321 82.4422 61.5115 82.4036 61.4827C82.365 61.454 82.3327 61.4177 82.3085 61.376C81.84 60.7883 81.4651 60.1317 81.1971 59.4296L81.1471 59.3045Z" fill="#E0609B"/>
<path d="M87.3049 53.3951V53.325L87.355 53.1449C87.4078 52.8484 87.5442 52.5732 87.7482 52.3516C87.9522 52.13 88.2152 51.9712 88.5064 51.8939C88.6763 51.8486 88.8542 51.8422 89.0269 51.8753C89.1996 51.9084 89.3626 51.9801 89.5036 52.085C89.6447 52.1899 89.7602 52.3253 89.8416 52.4811C89.9229 52.6369 89.9679 52.8091 89.9733 52.9847C89.9733 53.1749 90.0333 53.2149 90.2236 53.2099C90.5255 53.2292 90.8082 53.3645 91.0125 53.5874C91.2169 53.8103 91.327 54.1036 91.32 54.4058C91.3009 54.6018 91.2418 54.7918 91.1462 54.9639C91.0506 55.1361 90.9206 55.2867 90.7643 55.4066C90.1661 55.7828 89.468 55.9694 88.7617 55.942C88.395 55.9461 88.0286 55.9226 87.6654 55.8719C87.622 55.8746 87.5784 55.8687 87.5373 55.8546C87.4962 55.8405 87.4583 55.8183 87.4257 55.7895C87.3931 55.7607 87.3666 55.7257 87.3476 55.6866C87.3286 55.6475 87.3175 55.6051 87.3149 55.5617C87.1981 54.8786 87.1863 54.1817 87.2799 53.4951L87.3049 53.3951Z" fill="#EC5D9E"/>
</g>
<defs>
<clipPath id="clip0_310_2">
<rect width="108.046" height="100" fill="white"/>
</clipPath>
</defs>
</svg>
