<?xml version="1.0" standalone="no"?>
<!DOCTYPE svg PUBLIC "-//W3C//DTD SVG 20010904//EN"
 "http://www.w3.org/TR/2001/REC-SVG-20010904/DTD/svg10.dtd">
<svg version="1.0" xmlns="http://www.w3.org/2000/svg"
 width="470.000000pt" height="470.000000pt" viewBox="0 0 470.000000 470.000000"
 preserveAspectRatio="xMidYMid meet">
<metadata>
Created by potrace 1.14, written by Peter Selinger 2001-2017
</metadata>
<g transform="translate(0.000000,470.000000) scale(0.100000,-0.100000)"
fill="#000000" stroke="none">
<path d="M1509 4501 c-22 -17 -28 -17 -49 -5 -33 17 -45 17 -85 -2 -59 -28
-66 -93 -19 -163 26 -39 131 -121 156 -121 20 0 93 81 120 135 26 50 26 105 2
138 -31 41 -86 49 -125 18z"/>
<path d="M1085 4427 c-33 -11 -41 -18 -74 -65 -33 -47 -56 -135 -60 -224 l-3
-77 74 -22 c197 -60 350 -2 335 127 -5 51 -24 75 -73 99 -30 14 -34 21 -34 54
0 81 -84 136 -165 108z"/>
<path d="M2956 4424 c-94 -15 -155 -36 -217 -77 -120 -78 -146 -232 -52 -318
40 -37 69 -51 127 -58 47 -6 51 -8 57 -39 25 -123 167 -188 280 -129 126 67
165 273 100 527 -19 71 -32 99 -50 104 -30 9 -165 3 -245 -10z"/>
<path d="M1765 4377 c-108 -35 -146 -146 -80 -233 l25 -33 -19 -33 c-41 -70
-11 -167 63 -202 71 -34 150 -10 236 70 57 53 150 186 150 214 0 37 -157 170
-236 201 -51 19 -109 26 -139 16z"/>
<path d="M3458 4370 c-74 -21 -129 -97 -121 -168 2 -20 14 -56 25 -79 20 -40
20 -44 5 -61 -67 -73 -52 -196 30 -252 56 -38 127 -39 205 -1 36 17 92 54 125
83 69 62 153 163 153 185 0 23 -74 118 -143 184 -95 92 -198 131 -279 109z"/>
<path d="M675 4309 c-51 -26 -125 -99 -171 -165 -29 -42 -34 -56 -25 -71 17
-33 135 -138 177 -158 84 -40 172 -28 210 30 24 37 22 99 -4 135 l-22 30 20
37 c24 45 25 62 6 108 -29 70 -115 94 -191 54z"/>
<path d="M3874 4265 c-18 -28 -14 -54 16 -102 23 -38 40 -41 85 -13 35 22 58
61 49 85 -8 20 -39 36 -57 30 -7 -3 -20 1 -27 10 -19 22 -47 18 -66 -10z"/>
<path d="M1479 4142 c-80 -51 -82 -68 -20 -135 39 -43 75 -59 106 -47 31 12
49 53 35 80 -7 13 -6 21 5 30 21 17 19 64 -3 83 -27 25 -72 21 -123 -11z"/>
<path d="M4045 4145 c-75 -32 -259 -244 -315 -360 -73 -154 -71 -269 7 -373
72 -95 246 -102 327 -13 24 26 51 27 79 1 22 -21 105 -50 141 -50 40 1 115 35
151 69 21 18 49 58 62 89 73 158 -37 368 -297 567 -104 80 -118 86 -155 70z"/>
<path d="M2190 4046 c-49 -15 -74 -35 -100 -79 -28 -48 -24 -121 10 -192 37
-77 222 -255 265 -255 25 0 104 61 169 130 100 108 135 208 101 295 -36 95
-136 130 -228 81 l-48 -26 -37 24 c-47 30 -87 37 -132 22z"/>
<path d="M335 3951 c-62 -20 -160 -113 -199 -189 -54 -107 -106 -283 -121
-412 -9 -72 4 -87 115 -133 181 -76 342 -104 470 -82 168 28 275 196 215 338
-21 50 -78 112 -118 127 -46 19 -56 34 -47 77 17 74 -13 172 -69 222 -63 57
-162 78 -246 52z"/>
<path d="M986 3929 c-47 -11 -62 -30 -72 -89 -4 -25 -9 -52 -10 -60 -17 -82
-22 -260 -10 -335 11 -68 46 -162 76 -203 139 -193 413 -137 456 93 7 37 9 38
93 50 52 7 91 26 130 64 52 51 66 88 66 177 0 72 -3 86 -30 129 -48 78 -139
133 -265 162 -75 17 -374 25 -434 12z"/>
<path d="M2750 3819 c-81 -32 -120 -122 -126 -290 -5 -122 0 -138 45 -146 76
-14 105 -17 166 -16 152 0 233 56 240 163 4 50 -46 114 -97 125 -32 8 -40 17
-44 58 -10 85 -103 138 -184 106z"/>
<path d="M3246 3785 c-82 -28 -118 -95 -119 -219 0 -95 27 -230 52 -255 15
-15 32 -17 92 -15 200 9 330 83 343 195 4 35 -14 90 -37 113 -23 23 -75 46
-105 46 -24 0 -31 7 -49 49 -32 76 -104 111 -177 86z"/>
<path d="M711 3759 c-22 -23 -21 -45 4 -83 41 -63 83 -65 124 -7 39 55 19 109
-36 98 -15 -3 -37 -1 -50 4 -18 6 -27 4 -42 -12z"/>
<path d="M1914 3768 c-74 -16 -130 -91 -155 -210 -17 -75 -17 -261 -1 -280 26
-32 248 -56 336 -36 103 23 163 79 176 164 12 76 -26 130 -114 165 -33 14 -41
22 -43 45 -3 47 -11 69 -34 98 -39 50 -96 69 -165 54z"/>
<path d="M2372 3364 c-66 -34 -102 -118 -102 -240 0 -97 25 -225 47 -242 14
-11 45 -13 128 -9 214 9 325 82 325 214 0 64 -70 131 -143 137 -27 2 -32 8
-44 49 -17 60 -63 96 -129 103 -34 3 -59 0 -82 -12z"/>
<path d="M4454 3330 c-91 -46 -229 -185 -217 -218 9 -25 96 -132 133 -165 48
-43 127 -79 171 -79 111 2 175 101 129 198 l-21 43 23 31 c33 46 33 128 -2
165 -59 63 -125 71 -216 25z"/>
<path d="M2824 3322 c-25 -16 -33 -48 -20 -73 7 -14 10 -34 6 -45 -10 -25 4
-60 28 -73 36 -19 118 41 150 111 5 10 -51 59 -85 74 -36 15 -62 18 -79 6z"/>
<path d="M4037 3312 c-36 -39 -5 -137 61 -195 19 -17 22 -17 51 -3 43 23 98
82 104 114 11 57 -37 100 -90 81 -14 -5 -25 -3 -33 7 -17 20 -74 18 -93 -4z"/>
<path d="M3793 3310 c-38 -9 -82 -35 -89 -55 -5 -11 -12 -11 -46 1 -81 28
-139 11 -183 -53 -74 -109 24 -253 241 -355 64 -30 65 -30 86 -12 34 31 106
138 134 198 42 91 35 181 -17 235 -16 17 -30 31 -32 31 -1 0 -16 4 -32 8 -17
5 -45 5 -62 2z"/>
<path d="M1498 3233 c-61 -17 -88 -45 -88 -91 0 -40 26 -72 58 -72 11 0 24
-13 33 -32 17 -41 62 -64 98 -52 52 19 78 114 58 217 -7 31 -12 37 -35 38 -15
1 -39 2 -54 3 -15 1 -46 -4 -70 -11z"/>
<path d="M3154 3225 c-12 -18 -14 -35 -9 -61 6 -36 45 -106 64 -119 18 -10
111 44 131 77 14 24 16 36 9 57 -12 31 -26 41 -60 41 -14 0 -34 7 -45 15 -30
23 -71 19 -90 -10z"/>
<path d="M888 3197 c-7 -7 -20 -12 -28 -12 -23 2 -40 -15 -40 -40 0 -26 13
-39 63 -60 36 -15 37 -14 53 11 41 62 1 148 -48 101z"/>
<path d="M58 3143 c-15 -10 -34 -34 -43 -55 -28 -71 1 -297 40 -312 9 -3 55
-4 103 -3 116 4 173 30 197 89 10 25 13 52 10 70 -10 43 -51 86 -91 94 -28 5
-37 14 -53 50 -33 73 -105 103 -163 67z"/>
<path d="M1785 3127 c-37 -32 -40 -38 -42 -92 0 -32 4 -70 10 -84 19 -45 94
-155 130 -189 39 -38 53 -36 141 22 129 86 180 181 147 269 -22 57 -114 87
-171 57 -19 -10 -26 -8 -51 16 -20 19 -41 28 -76 31 -44 4 -52 2 -88 -30z"/>
<path d="M2915 3109 c-46 -13 -111 -73 -129 -120 -21 -52 -19 -153 4 -229 34
-112 164 -325 209 -341 22 -9 168 48 253 99 79 47 162 123 195 180 30 51 38
129 20 189 -15 48 -72 105 -119 120 -42 12 -128 10 -154 -5 -14 -8 -28 2 -69
43 -67 69 -129 88 -210 64z"/>
<path d="M1133 3063 c-29 -15 -57 -48 -140 -173 -170 -253 -247 -515 -202
-682 42 -157 178 -271 322 -270 112 1 209 55 296 166 15 20 39 18 111 -9 44
-16 133 -23 180 -13 100 22 173 83 223 188 28 57 32 75 31 145 -1 115 -40 196
-155 317 -89 93 -326 236 -507 305 -100 38 -126 43 -159 26z"/>
<path d="M714 3051 c-18 -11 -35 -24 -38 -30 -4 -6 -18 -5 -41 5 -69 28 -121
8 -154 -59 -23 -48 -19 -80 19 -142 40 -65 212 -176 244 -158 27 15 97 109
123 163 46 98 31 190 -38 226 -38 19 -78 18 -115 -5z"/>
<path d="M4105 2995 c-144 -55 -193 -257 -135 -565 12 -68 36 -89 99 -91 124
-4 152 -3 230 9 218 33 340 156 301 303 -22 80 -87 135 -170 144 -23 2 -43 5
-45 7 -1 2 -10 28 -18 58 -17 59 -62 115 -107 132 -44 17 -113 18 -155 3z"/>
<path d="M2545 2825 c-48 -22 -125 -101 -125 -130 0 -26 90 -102 134 -115 38
-10 47 -10 70 5 34 22 44 61 24 95 -13 23 -13 29 -2 45 20 27 17 50 -8 79 -30
32 -56 38 -93 21z"/>
<path d="M3624 2814 c-16 -8 -37 -13 -46 -10 -23 6 -48 -19 -48 -48 0 -25 29
-56 76 -79 35 -18 45 -13 67 28 40 79 13 141 -49 109z"/>
<path d="M2074 2736 c-96 -42 -109 -198 -32 -378 11 -26 28 -50 37 -53 21 -6
108 9 176 32 135 44 195 126 166 223 -14 48 -62 80 -119 80 -37 0 -43 4 -63
40 -35 63 -99 84 -165 56z"/>
<path d="M260 2717 c-17 -13 -56 -135 -66 -202 -11 -73 -5 -169 11 -210 64
-153 250 -165 311 -20 13 32 18 35 54 35 103 0 176 72 172 171 -3 71 -46 125
-134 170 -90 46 -315 82 -348 56z"/>
<path d="M125 2680 c-3 -5 -19 -10 -34 -10 -33 0 -51 -16 -51 -45 0 -25 20
-45 67 -69 31 -16 32 -16 51 17 33 53 35 74 13 96 -23 23 -37 26 -46 11z"/>
<path d="M3487 2635 c-78 -40 -102 -125 -66 -233 28 -85 148 -252 181 -252 22
0 150 73 201 115 111 90 142 196 81 272 -42 52 -87 66 -154 49 -48 -13 -52
-12 -68 9 -40 51 -120 69 -175 40z"/>
<path d="M2624 2520 c-125 -25 -234 -123 -264 -240 -51 -190 51 -454 287 -748
123 -152 132 -154 304 -66 289 148 463 310 529 491 54 151 -13 341 -144 410
-86 45 -206 48 -295 8 -29 -14 -59 -22 -66 -17 -7 4 -32 28 -55 54 -72 82
-196 127 -296 108z"/>
<path d="M4131 2279 c-17 -10 -36 -30 -41 -43 -14 -39 -5 -126 21 -191 l25
-60 50 1 c67 2 161 47 191 93 46 69 -5 157 -84 145 -15 -3 -24 3 -28 16 -8 25
-47 52 -79 55 -13 2 -38 -6 -55 -16z"/>
<path d="M3832 2254 c-11 -7 -24 -26 -29 -41 -10 -28 -11 -109 -2 -117 22 -22
142 -3 160 26 18 27 9 59 -19 75 -16 9 -33 25 -38 36 -13 28 -47 39 -72 21z"/>
<path d="M2060 2170 c-24 -24 -26 -60 -6 -99 15 -29 90 -101 104 -101 20 0 86
68 103 104 32 72 -9 128 -77 106 -26 -9 -39 -9 -47 -1 -17 17 -55 13 -77 -9z"/>
<path d="M547 2124 c-31 -7 -80 -24 -108 -36 l-51 -22 5 -50 c9 -78 14 -96 47
-163 35 -71 76 -105 129 -109 69 -4 121 44 121 113 0 34 4 41 34 57 77 41 78
152 3 200 -32 21 -114 26 -180 10z"/>
<path d="M3564 2038 c-55 -26 -49 -105 14 -180 19 -23 64 -6 113 43 37 37 39
44 25 86 -7 23 -39 39 -55 29 -5 -4 -24 2 -43 13 -25 14 -38 17 -54 9z"/>
<path d="M3929 2027 c-125 -43 -189 -103 -189 -181 0 -30 7 -45 35 -73 28 -28
41 -34 72 -33 56 3 60 2 66 -19 7 -28 56 -56 97 -55 118 3 147 134 67 304 -27
57 -46 80 -66 80 -9 0 -46 -11 -82 -23z"/>
<path d="M1590 2014 c-22 -9 -47 -31 -64 -57 -33 -51 -32 -107 4 -182 37 -75
198 -224 253 -232 27 -4 179 151 211 215 39 77 43 136 14 191 -42 81 -137 105
-209 55 l-38 -26 -28 21 c-36 27 -98 33 -143 15z"/>
<path d="M898 1895 c-133 -34 -194 -165 -142 -305 41 -109 195 -281 326 -363
42 -26 62 -21 130 35 237 194 326 386 246 530 -60 109 -194 138 -303 66 l-46
-31 -22 21 c-49 46 -122 65 -189 47z"/>
<path d="M2154 1858 c-26 -12 -44 -48 -44 -87 0 -20 -6 -30 -19 -34 -10 -2
-27 -17 -37 -31 -23 -36 -10 -91 28 -119 38 -28 124 -27 198 3 81 32 80 31 64
103 -33 139 -108 205 -190 165z"/>
<path d="M3419 1697 c-49 -26 -89 -89 -89 -142 0 -52 28 -128 71 -196 55 -84
156 -189 184 -189 29 0 160 88 218 146 26 27 62 76 78 110 25 51 29 69 24 105
-13 88 -62 139 -143 147 -34 3 -60 -1 -83 -12 -42 -21 -52 -20 -75 5 -24 27
-74 49 -112 49 -16 0 -49 -10 -73 -23z"/>
<path d="M2345 1541 c-40 -10 -86 -35 -107 -58 -53 -59 -77 -185 -58 -305 15
-93 63 -253 90 -296 21 -34 21 -34 84 -28 307 26 506 155 506 328 0 108 -93
193 -208 192 l-54 -1 -25 53 c-45 95 -131 138 -228 115z"/>
<path d="M3140 1480 c-93 -17 -155 -92 -190 -231 -28 -107 -37 -257 -18 -281
7 -10 54 -28 107 -42 171 -44 341 -24 402 46 86 98 58 226 -61 277 -46 20 -47
22 -43 57 5 45 -28 116 -65 143 -37 26 -90 38 -132 31z"/>
<path d="M1700 1472 c-143 -19 -290 -77 -354 -139 -104 -100 -120 -264 -36
-365 38 -46 120 -87 183 -92 27 -2 52 -7 56 -12 5 -5 14 -31 20 -58 29 -119
121 -190 246 -190 128 0 218 72 266 214 40 119 33 358 -17 555 -22 90 -31 95
-199 92 -77 -1 -151 -3 -165 -5z"/>
<path d="M2757 924 c-46 -31 -62 -67 -62 -138 1 -70 44 -207 80 -252 l22 -28
69 17 c160 39 257 118 256 207 -1 75 -50 122 -127 122 -36 0 -47 4 -57 21 -12
24 -58 66 -73 68 -51 7 -80 3 -108 -17z"/>
<path d="M2155 726 c-39 -17 -80 -65 -95 -112 -33 -99 49 -250 208 -384 77
-66 92 -69 144 -34 23 16 75 62 116 101 153 152 179 313 64 401 -53 41 -149
36 -213 -10 -13 -9 -23 -6 -53 17 -44 34 -123 44 -171 21z"/>
</g>
</svg>
